<svg width="24" height="24" viewBox="0 0 24 24" fill="none" xmlns="http://www.w3.org/2000/svg">
<g clip-path="url(#clip0_981_6843)">
<path d="M12 24C5.383 24 0 18.617 0 12C0 5.383 5.383 0 12 0C18.617 0 24 5.383 24 12C24 18.617 18.617 24 12 24ZM12 2C6.486 2 2 6.486 2 12C2 17.514 6.486 22 12 22C17.514 22 22 17.514 22 12C22 6.486 17.514 2 12 2Z" fill="#BE52F2"/>
<path d="M9.23801 9.23801L5.09601 18.904L14.762 14.762L18.904 5.09601L9.23801 9.23801ZM8.90401 15.096L10.762 10.762L13.239 13.239L8.90401 15.096Z" fill="#DBA5F5"/>
</g>
<defs>
<clipPath id="clip0_981_6843">
<rect width="24" height="24" fill="white"/>
</clipPath>
</defs>
</svg>
